<svg width="23" height="19" viewBox="0 0 23 19" fill="none" xmlns="http://www.w3.org/2000/svg">
<path d="M6.21094 2.78501L11.0971 1.11147C11.3071 1.03953 11.5351 1.03953 11.7451 1.11147L16.6313 2.78501M6.21094 2.78501L11.4211 4.66346M6.21094 2.78501V7.55332C6.21094 7.9633 6.46118 8.33175 6.84228 8.48289L11.4211 10.2988M16.6313 2.78501L11.4211 4.66346M16.6313 2.78501V7.30454C16.6313 7.69785 16.4007 8.05464 16.0421 8.21624L11.4211 10.2988M11.4211 4.66346V10.2988" stroke="white" stroke-width="0.5"/>
<path d="M1 10.4862L5.82974 8.39664C6.07331 8.29126 6.34877 8.28703 6.59547 8.38486L11.4203 10.2983M1 10.4862L6.21016 12.3646M1 10.4862V15.2545C1 15.6645 1.25024 16.0329 1.63134 16.1841L6.21016 18M11.4203 10.2983L6.21016 12.3646M11.4203 10.2983V15.0057C11.4203 15.399 11.1898 15.7558 10.8312 15.9174L6.21016 18M6.21016 12.3646V18" stroke="white" stroke-width="0.5"/>
<path d="M11.5 10.2985L16.2232 8.13665C16.482 8.01817 16.7791 8.01563 17.04 8.12968L22.0005 10.2985M11.5 10.2985L16.7903 12.3648M11.5 10.2985V15.0018C11.5 15.3972 11.7329 15.7555 12.0943 15.9158L16.7903 18.0001M22.0005 10.2985L16.7903 12.3648M22.0005 10.2985V15.0059C22.0005 15.3992 21.7699 15.756 21.4113 15.9176L16.7903 18.0001M16.7903 12.3648V18.0001" stroke="white" stroke-width="0.5"/>
</svg>
