<svg width="15" height="15" viewBox="0 0 15 15" fill="none" xmlns="http://www.w3.org/2000/svg">
<path d="M6.75 13.5H2.99999C2.17157 13.5 1.49999 12.8284 1.5 12L1.50006 2.99999C1.50006 2.17157 2.17163 1.5 3.00006 1.5H9.75022C10.5787 1.5 11.2502 2.17157 11.2502 3V6M10.875 10.8431V10.8036M4.12523 4.5H8.62523M4.12523 6.75H8.62523M4.12523 9H6.37523M13.5 10.875C13.5 10.875 12.8774 12.7123 10.875 12.6802C8.87259 12.6481 8.25 10.875 8.25 10.875C8.25 10.875 8.84735 9.00561 10.875 9.00561C12.9026 9.00561 13.5 10.875 13.5 10.875Z" stroke="#F6F7FC" stroke-linecap="round" stroke-linejoin="round"/>
</svg>
