<svg width="60" height="76" viewBox="0 0 60 76" fill="none" xmlns="http://www.w3.org/2000/svg">
<path d="M17.7067 74H21.2848V73.2578H18.5661V71.5312H21.0661V70.7969H18.5661V69.0859H21.2536V68.3438H17.7067V74ZM25.7186 69.7578H24.8202L23.7498 73.0156H23.7108L22.6405 69.7578H21.742L23.2811 74H24.1795L25.7186 69.7578ZM26.2383 74H27.0742V71.3828C27.0742 70.8125 27.4727 70.4219 27.9414 70.4219C28.3984 70.4219 28.7148 70.7227 28.7148 71.1875V74H29.543V71.2969C29.543 70.7891 29.8516 70.4219 30.3867 70.4219C30.8242 70.4219 31.1836 70.6602 31.1836 71.2344V74H32.0195V71.1562C32.0156 70.1836 31.4727 69.7031 30.707 69.7031C30.0938 69.7031 29.6328 69.9961 29.4336 70.4531H29.3867C29.207 69.9805 28.8125 69.7031 28.2461 69.7031C27.6875 69.7031 27.2695 69.9805 27.0898 70.4531H27.043V69.7578H26.2383V74ZM34.6642 74.0859C35.8595 74.0859 36.6408 73.2109 36.6408 71.8984C36.6408 70.5781 35.8595 69.7031 34.6642 69.7031C33.4611 69.7031 32.6759 70.5781 32.6798 71.8984C32.6759 73.2109 33.4611 74.0859 34.6642 74.0859ZM33.5158 71.8984C33.5158 71.0859 33.8869 70.3945 34.6642 70.3906C35.4298 70.3945 35.797 71.0859 35.797 71.8984C35.797 72.707 35.4298 73.3906 34.6642 73.3906C33.8869 73.3906 33.5158 72.707 33.5158 71.8984ZM39.6839 70.9141H40.4886C40.4066 70.1836 39.8167 69.7031 38.8714 69.7031C37.887 69.7031 37.2308 70.2227 37.2308 70.9766C37.2308 71.5625 37.6292 71.9727 38.3948 72.1406L39.0589 72.2812C39.5081 72.3867 39.7113 72.5625 39.7152 72.8359C39.7113 73.1914 39.3636 73.418 38.8245 73.4141C38.3206 73.418 38.0316 73.2266 37.9573 72.8438H37.1058C37.2113 73.6328 37.8128 74.0859 38.8323 74.0859C39.9144 74.0859 40.5628 73.5391 40.5667 72.7734C40.5628 72.1719 40.1839 71.8008 39.4027 71.625L38.7308 71.4688C38.262 71.3594 38.0628 71.1797 38.0667 70.9297C38.0628 70.6055 38.4027 70.3594 38.8792 70.3594C39.3402 70.3594 39.6058 70.5781 39.6839 70.9141Z" fill="#8C8C8C"/>
<circle cx="30" cy="30" r="30" fill="#4D4D4D"/>
<path d="M29.8901 49.7802C40.8751 49.7802 49.7802 40.8751 49.7802 29.8901C49.7802 18.9051 40.8751 10 29.8901 10C18.9051 10 10 18.9051 10 29.8901C10 40.8751 18.9051 49.7802 29.8901 49.7802Z" fill="#ED4E33"/>
<path d="M26.3045 20.6522C20.8784 22.7386 20.3814 28.0817 18.8255 30.5771C17.2512 33.1021 13.6445 34.4953 14.1377 35.7821C14.6309 37.0688 18.2419 35.6867 21.0987 36.5078C23.9216 37.3191 27.8604 40.957 33.2864 38.8706C36.0506 37.8078 38.0522 35.6202 38.9727 33.0291C39.0716 32.751 38.8865 32.4536 38.5929 32.4261C38.4104 32.4089 38.2352 32.5046 38.1529 32.6686C37.3204 34.3296 35.8922 35.6975 34.023 36.416C30.9374 37.6024 27.5613 36.6709 25.4878 34.3347C25.0169 33.8043 24.6141 33.2004 24.2961 32.533C24.2087 32.3493 24.1256 32.1626 24.0519 31.9694C23.9778 31.7763 23.9148 31.5819 23.8569 31.3866C25.4878 30.6252 27.3697 29.8187 29.5032 28.9985C31.5952 28.1942 33.499 27.5418 35.1941 27.0199C36.3409 26.6671 37.3919 26.3735 38.3409 26.1336C38.4096 26.1164 38.4773 26.0992 38.5445 26.0825C38.6881 26.0469 38.8355 26.1237 38.8886 26.2619L38.8896 26.2645C38.9209 26.3464 38.9478 26.4289 38.9768 26.5113C39.1645 27.0431 39.3052 27.5804 39.3981 28.1191C39.4388 28.3547 39.696 28.483 39.9068 28.3697C40.6858 27.9508 41.3983 27.5422 42.035 27.1491C44.4078 25.6855 45.7232 24.4442 45.4532 23.7408C45.1837 23.0369 43.377 22.9965 40.636 23.4987C39.765 23.6584 38.7991 23.873 37.7583 24.1386C37.5783 24.1846 37.3963 24.2322 37.2119 24.2811C36.336 24.5138 35.4122 24.7803 34.4502 25.0786C32.6613 25.6335 30.742 26.2984 28.7607 27.0602C26.907 27.7731 25.1501 28.5122 23.539 29.2487C23.5193 26.1229 25.4059 23.1678 28.4915 21.9815C30.3602 21.263 32.3356 21.3218 34.0642 21.9986C34.2347 22.0656 34.4288 22.0192 34.5535 21.8841C34.7532 21.6673 34.6919 21.3222 34.4327 21.1814C32.0177 19.8737 29.0687 19.5895 26.3045 20.6522Z" fill="white"/>
</svg>
