<svg width="60" height="76" viewBox="0 0 60 76" fill="none" xmlns="http://www.w3.org/2000/svg">
<path d="M17.6598 74H21.4645V73.0312H18.8317V71.6562H21.2614V70.6875H18.8317V69.3125H21.4567V68.3438H17.6598V74ZM26.1248 69.7578H24.8983L24.0077 72.8047H23.9608L23.0702 69.7578H21.8514L23.3358 74H24.6327L26.1248 69.7578ZM26.5273 74H27.6836V71.4531C27.6797 70.9727 27.9844 70.6562 28.3789 70.6562C28.7734 70.6562 29.0391 70.9258 29.0352 71.3438V74H30.1602V71.4062C30.1562 70.957 30.4141 70.6562 30.8477 70.6562C31.2266 70.6562 31.5156 70.8906 31.5117 71.375V74H32.668V71.1484C32.668 70.2227 32.1172 69.7031 31.332 69.7031C30.7109 69.7031 30.2266 70.0195 30.0508 70.5H30.0117C29.8711 70.0117 29.4375 69.7031 28.8555 69.7031C28.2852 69.7031 27.8555 70.0039 27.6758 70.5H27.6289V69.7578H26.5273V74ZM35.3048 74.0859C36.59 74.082 37.3869 73.2031 37.3908 71.8906C37.3869 70.582 36.59 69.7031 35.3048 69.7031C34.0236 69.7031 33.2228 70.582 33.2267 71.8906C33.2228 73.2031 34.0236 74.082 35.3048 74.0859ZM34.3986 71.8906C34.3986 71.1445 34.7072 70.5859 35.3127 70.5859C35.9025 70.5859 36.215 71.1445 36.2111 71.8906C36.215 72.6328 35.9025 73.1836 35.3127 73.1875C34.7072 73.1836 34.3986 72.6328 34.3986 71.8906ZM40.3792 71.0156H41.4652C41.4027 70.2109 40.7386 69.7031 39.6683 69.7031C38.5745 69.7031 37.8753 70.2109 37.8792 71.0234C37.8753 71.6523 38.2894 72.0664 39.098 72.2266L39.8011 72.3672C40.1995 72.4492 40.3792 72.5859 40.3792 72.8047C40.3792 73.0781 40.098 73.2461 39.6761 73.25C39.2503 73.2461 38.9808 73.0742 38.9261 72.7422H37.762C37.8597 73.5703 38.5316 74.082 39.6761 74.0859C40.805 74.082 41.555 73.5234 41.5589 72.6875C41.555 72.0781 41.1566 71.7109 40.3323 71.5391L39.5745 71.3828C39.1722 71.3008 39.0238 71.1523 39.0277 70.9609C39.0238 70.7031 39.3089 70.5273 39.6839 70.5234C40.0706 70.5273 40.3284 70.7188 40.3792 71.0156Z" fill="#1F53FF"/>
<circle cx="30" cy="30" r="29.5" fill="#4D4D4D" stroke="#1F53FF"/>
<path d="M29.8901 49.7802C40.8751 49.7802 49.7802 40.8751 49.7802 29.8901C49.7802 18.9051 40.8751 10 29.8901 10C18.9051 10 10 18.9051 10 29.8901C10 40.8751 18.9051 49.7802 29.8901 49.7802Z" fill="#ED4E33"/>
<path d="M26.3045 20.6522C20.8784 22.7386 20.3814 28.0817 18.8255 30.5771C17.2512 33.1021 13.6445 34.4953 14.1377 35.7821C14.6309 37.0688 18.2419 35.6867 21.0987 36.5078C23.9216 37.3191 27.8604 40.957 33.2864 38.8706C36.0506 37.8078 38.0522 35.6202 38.9727 33.0291C39.0716 32.751 38.8865 32.4536 38.5929 32.4261C38.4104 32.4089 38.2352 32.5046 38.1529 32.6686C37.3204 34.3296 35.8922 35.6975 34.023 36.416C30.9374 37.6024 27.5613 36.6709 25.4878 34.3347C25.0169 33.8043 24.6141 33.2004 24.2961 32.533C24.2087 32.3493 24.1256 32.1626 24.0519 31.9694C23.9778 31.7763 23.9148 31.5819 23.8569 31.3866C25.4878 30.6252 27.3697 29.8187 29.5032 28.9985C31.5952 28.1942 33.499 27.5418 35.1941 27.0199C36.3409 26.6671 37.3919 26.3735 38.3409 26.1336C38.4096 26.1164 38.4773 26.0992 38.5445 26.0825C38.6881 26.0469 38.8355 26.1237 38.8886 26.2619L38.8896 26.2645C38.9209 26.3464 38.9478 26.4289 38.9768 26.5113C39.1645 27.0431 39.3052 27.5804 39.3981 28.1191C39.4388 28.3547 39.696 28.483 39.9068 28.3697C40.6858 27.9508 41.3983 27.5422 42.035 27.1491C44.4078 25.6855 45.7232 24.4442 45.4532 23.7408C45.1837 23.0369 43.377 22.9965 40.636 23.4987C39.765 23.6584 38.7991 23.873 37.7583 24.1386C37.5783 24.1846 37.3963 24.2322 37.2119 24.2811C36.336 24.5138 35.4122 24.7803 34.4502 25.0786C32.6613 25.6335 30.742 26.2984 28.7607 27.0602C26.907 27.7731 25.1501 28.5122 23.539 29.2487C23.5193 26.1229 25.4059 23.1678 28.4915 21.9815C30.3602 21.263 32.3356 21.3218 34.0642 21.9986C34.2347 22.0656 34.4288 22.0192 34.5535 21.8841C34.7532 21.6673 34.6919 21.3222 34.4327 21.1814C32.0177 19.8737 29.0687 19.5895 26.3045 20.6522Z" fill="white"/>
</svg>
