<svg width="60" height="76" viewBox="0 0 60 76" fill="none" xmlns="http://www.w3.org/2000/svg">
<path d="M21.49 74H22.6619V72.3828L23.2556 71.6641L24.8259 74H26.2322L24.0994 70.875L26.2087 68.3438H24.7947L22.74 70.8516H22.6619V68.3438H21.49V74ZM26.4081 72.8125C26.412 73.6523 27.0097 74.082 27.8222 74.0781C28.4511 74.082 28.8573 73.8047 29.0644 73.4141H29.0956V74H30.1894V71.1406C30.1933 70.1172 29.3183 69.7031 28.3925 69.7031C27.2675 69.7031 26.6269 70.2812 26.5566 71.0156H27.6581C27.7206 70.7266 27.9667 70.5508 28.3612 70.5469C28.7948 70.5508 29.037 70.7539 29.0409 71.1094V71.4531C28.8612 71.4609 28.2909 71.4883 27.9862 71.5078C27.1698 71.5586 26.412 71.8672 26.4081 72.8125ZM27.5175 72.7812C27.5175 72.4531 27.7714 72.2617 28.1737 72.2266C28.3691 72.2109 28.8652 72.1836 29.0409 72.1758V72.4844C29.0448 72.9336 28.6777 73.2773 28.1503 73.2812C27.7792 73.2773 27.5175 73.1055 27.5175 72.7812ZM34.6934 69.7578H33.4669L32.5763 72.8047H32.5294L31.6388 69.7578H30.42L31.9044 74H33.2013L34.6934 69.7578ZM34.7756 72.8125C34.7795 73.6523 35.3772 74.082 36.1897 74.0781C36.8186 74.082 37.2248 73.8047 37.4319 73.4141H37.4631V74H38.5569V71.1406C38.5608 70.1172 37.6858 69.7031 36.76 69.7031C35.635 69.7031 34.9944 70.2812 34.9241 71.0156H36.0256C36.0881 70.7266 36.3342 70.5508 36.7288 70.5469C37.1623 70.5508 37.4045 70.7539 37.4084 71.1094V71.4531C37.2288 71.4609 36.6584 71.4883 36.3538 71.5078C35.5373 71.5586 34.7795 71.8672 34.7756 72.8125ZM35.885 72.7812C35.885 72.4531 36.1389 72.2617 36.5413 72.2266C36.7366 72.2109 37.2327 72.1836 37.4084 72.1758V72.4844C37.4123 72.9336 37.0452 73.2773 36.5178 73.2812C36.1467 73.2773 35.885 73.1055 35.885 72.7812Z" fill="#1F53FF"/>
<circle cx="30" cy="30" r="29.5" fill="#4D4D4D" stroke="#1F53FF"/>
<g clip-path="url(#clip0_700_283)">
<path d="M30 50C41.0457 50 50 41.0457 50 30C50 18.9543 41.0457 10 30 10C18.9543 10 10 18.9543 10 30C10 41.0457 18.9543 50 30 50Z" fill="#FF433E"/>
<path d="M24.7031 18.4531H20.6719V41.5625H24.7031V18.4531Z" fill="white"/>
<path d="M35.7344 41.5469L26.8906 30L35.7344 18.4531H40.7812L32.0781 30L40.7812 41.5469H35.7344Z" fill="white"/>
</g>
<defs>
<clipPath id="clip0_700_283">
<rect width="40" height="40" fill="white" transform="translate(10 10)"/>
</clipPath>
</defs>
</svg>
