<svg width="60" height="76" viewBox="0 0 60 76" fill="none" xmlns="http://www.w3.org/2000/svg">
<path d="M21.9158 74H22.7752V72.2422L23.4392 71.4766L25.2595 74H26.2986L24.0095 70.8906L26.2908 68.3438H25.2127L22.8455 71.0391H22.7752V68.3438H21.9158V74ZM26.5761 72.8047C26.5722 73.6328 27.2011 74.0938 28.0058 74.0938C28.7089 74.0938 29.0995 73.7383 29.2636 73.4219H29.2948V74H30.1073V71.1797C30.1034 69.9492 29.1191 69.7031 28.4433 69.7031C27.4394 69.7031 26.7831 70.2109 26.7089 70.9141H27.537C27.623 70.6016 27.9198 70.375 28.412 70.375C28.9784 70.375 29.2753 70.6523 29.2714 71.1328L29.2753 71.4727C29.08 71.4805 28.4433 71.5156 28.162 71.5312C27.3964 71.5859 26.5722 71.8359 26.5761 72.8047ZM27.3886 72.8125C27.3886 72.3945 27.7323 72.1875 28.2792 72.1484C28.4784 72.1367 29.0839 72.0938 29.2753 72.082L29.2792 72.4688C29.2792 72.9727 28.873 73.4258 28.1933 73.4297C27.7245 73.4258 27.3886 73.2188 27.3886 72.8125ZM34.4395 69.7578H33.5411L32.4708 73.0156H32.4317L31.3614 69.7578H30.463L32.002 74H32.9005L34.4395 69.7578ZM34.6311 72.8047C34.6272 73.6328 35.2561 74.0938 36.0608 74.0938C36.7639 74.0938 37.1545 73.7383 37.3186 73.4219H37.3498V74H38.1623V71.1797C38.1584 69.9492 37.1741 69.7031 36.4983 69.7031C35.4944 69.7031 34.8381 70.2109 34.7639 70.9141H35.592C35.678 70.6016 35.9748 70.375 36.467 70.375C37.0334 70.375 37.3303 70.6523 37.3264 71.1328L37.3303 71.4727C37.135 71.4805 36.4983 71.5156 36.217 71.5312C35.4514 71.5859 34.6272 71.8359 34.6311 72.8047ZM35.4436 72.8125C35.4436 72.3945 35.7873 72.1875 36.3342 72.1484C36.5334 72.1367 37.1389 72.0938 37.3303 72.082L37.3342 72.4688C37.3342 72.9727 36.928 73.4258 36.2483 73.4297C35.7795 73.4258 35.4436 73.2188 35.4436 72.8125Z" fill="#8C8C8C"/>
<circle cx="30" cy="30" r="30" fill="#4D4D4D"/>
<g clip-path="url(#clip0_700_281)">
<path d="M30 50C41.0457 50 50 41.0457 50 30C50 18.9543 41.0457 10 30 10C18.9543 10 10 18.9543 10 30C10 41.0457 18.9543 50 30 50Z" fill="#FF433E"/>
<path d="M24.7031 18.4531H20.6719V41.5625H24.7031V18.4531Z" fill="white"/>
<path d="M35.7344 41.5469L26.8906 30L35.7344 18.4531H40.7812L32.0781 30L40.7812 41.5469H35.7344Z" fill="white"/>
</g>
<defs>
<clipPath id="clip0_700_281">
<rect width="40" height="40" fill="white" transform="translate(10 10)"/>
</clipPath>
</defs>
</svg>
