<svg width="114" height="68" viewBox="0 0 114 68" fill="none" xmlns="http://www.w3.org/2000/svg">
<path d="M27.4808 37.7277C27.4808 45.3487 45.7441 46.2506 33.0269 52.3384C26.2205 55.5965 8 46.1604 8 38.5394C8 30.9185 22.162 19.3532 33.0269 24.7405C49.3968 32.8575 27.4808 30.1068 27.4808 37.7277Z" fill="#FAF1E4"/>
<circle cx="35.1917" cy="38.9452" r="3.65266" fill="#FAF1E4"/>
<circle cx="25.4515" cy="18.6527" r="3.65266" fill="#FAF1E4"/>
<path d="M72.7139 18.6003C63.5542 22.13 62.7151 31.1696 60.0886 35.3913C57.431 39.6632 51.3426 42.0202 52.1752 44.1974C53.0077 46.3742 59.1034 44.036 63.926 45.425C68.6914 46.7976 75.3404 52.9523 84.5002 49.4225C89.1664 47.6244 92.5452 43.9234 94.0991 39.5398C94.2662 39.0692 93.9537 38.566 93.4581 38.5195C93.1499 38.4905 92.8542 38.6524 92.7153 38.9298C91.3099 41.7399 88.8989 44.0542 85.7436 45.2697C80.5348 47.2769 74.8355 45.7009 71.3352 41.7486C70.5403 40.8512 69.8603 39.8295 69.3236 38.7003C69.176 38.3896 69.0357 38.0737 68.9113 37.7469C68.7862 37.4202 68.6798 37.0912 68.5822 36.7609C71.3352 35.4727 74.5122 34.1083 78.1137 32.7207C81.6451 31.3599 84.859 30.2561 87.7205 29.3732C89.6564 28.7763 91.4306 28.2796 93.0326 27.8737C93.1486 27.8447 93.2629 27.8156 93.3763 27.7873C93.6187 27.727 93.8675 27.857 93.9571 28.0908L93.9589 28.0952C94.0117 28.2339 94.0571 28.3733 94.106 28.5127C94.4229 29.4124 94.6605 30.3215 94.8172 31.2328C94.886 31.6315 95.3202 31.8486 95.676 31.6569C96.991 30.9481 98.1938 30.2569 99.2686 29.5917C103.274 27.1156 105.495 25.0157 105.039 23.8255C104.584 22.6347 101.534 22.5664 96.907 23.416C95.4366 23.6861 93.8061 24.0492 92.0492 24.4987C91.7453 24.5764 91.438 24.657 91.1268 24.7397C89.6482 25.1333 88.0887 25.5842 86.4648 26.0889C83.4448 27.0278 80.2049 28.1526 76.8602 29.4414C73.731 30.6475 70.7652 31.898 68.0454 33.144C68.0122 27.8556 71.1971 22.8561 76.4059 20.8491C79.5604 19.6336 82.8951 19.7331 85.813 20.8782C86.1009 20.9914 86.4286 20.913 86.6391 20.6843C86.9762 20.3176 86.8727 19.7338 86.4351 19.4956C82.3583 17.2831 77.3802 16.8024 72.7139 18.6003Z" fill="#FAF1E4"/>
</svg>
