<svg width="55" height="32" viewBox="0 0 55 32" fill="none" xmlns="http://www.w3.org/2000/svg">
<path d="M30 16L28 25L26 16H30Z" fill="#4759FF"/>
<rect width="55" height="17" rx="5" fill="#4759FF"/>
<path d="M10.6094 5.34375V11H11.75V7.28125H11.7969L13.2734 10.9766H14.0547L15.5312 7.29688H15.5781V11H16.7188V5.34375H15.2656L13.6953 9.17969H13.6328L12.0625 5.34375H10.6094ZM17.4453 9.8125C17.4492 10.6523 18.0469 11.082 18.8594 11.0781C19.4883 11.082 19.8945 10.8047 20.1016 10.4141H20.1328V11H21.2266V8.14062C21.2305 7.11719 20.3555 6.70312 19.4297 6.70312C18.3047 6.70312 17.6641 7.28125 17.5938 8.01562H18.6953C18.7578 7.72656 19.0039 7.55078 19.3984 7.54688C19.832 7.55078 20.0742 7.75391 20.0781 8.10938V8.45312C19.8984 8.46094 19.3281 8.48828 19.0234 8.50781C18.207 8.55859 17.4492 8.86719 17.4453 9.8125ZM18.5547 9.78125C18.5547 9.45312 18.8086 9.26172 19.2109 9.22656C19.4062 9.21094 19.9023 9.18359 20.0781 9.17578V9.48438C20.082 9.93359 19.7148 10.2773 19.1875 10.2812C18.8164 10.2773 18.5547 10.1055 18.5547 9.78125ZM23.0703 6.75781H21.875L23.0938 8.875L21.8281 11H23.0312L23.8594 9.52344L24.7031 11H25.8906L24.6172 8.875L25.8594 6.75781H24.6641L23.8594 8.25L23.0703 6.75781ZM30.5391 11.0781C31.8164 11.082 32.6836 10.2578 32.6797 9.10938C32.6836 8.04297 31.9258 7.28125 30.9062 7.28125C30.2812 7.28125 29.7227 7.57422 29.4609 8.07812H29.4062C29.4141 6.96484 29.8164 6.27344 30.5859 6.27344C31.043 6.27344 31.3672 6.51953 31.4609 6.91406H32.6172C32.5039 5.98438 31.7227 5.26562 30.5859 5.26562C29.1719 5.26562 28.2617 6.39453 28.2578 8.30469C28.2539 10.375 29.3711 11.0742 30.5391 11.0781ZM29.5234 9.14062C29.5312 8.58984 29.9688 8.13672 30.5469 8.13281C31.1211 8.13672 31.5391 8.57422 31.5391 9.14062C31.5391 9.71094 31.1133 10.1523 30.5312 10.1484C29.9531 10.1523 29.5312 9.69531 29.5234 9.14062ZM35.6797 11.0781C36.957 11.082 37.8242 10.2578 37.8203 9.10938C37.8242 8.04297 37.0664 7.28125 36.0469 7.28125C35.4219 7.28125 34.8633 7.57422 34.6016 8.07812H34.5469C34.5547 6.96484 34.957 6.27344 35.7266 6.27344C36.1836 6.27344 36.5078 6.51953 36.6016 6.91406H37.7578C37.6445 5.98438 36.8633 5.26562 35.7266 5.26562C34.3125 5.26562 33.4023 6.39453 33.3984 8.30469C33.3945 10.375 34.5117 11.0742 35.6797 11.0781ZM34.6641 9.14062C34.6719 8.58984 35.1094 8.13672 35.6875 8.13281C36.2617 8.13672 36.6797 8.57422 36.6797 9.14062C36.6797 9.71094 36.2539 10.1523 35.6719 10.1484C35.0938 10.1523 34.6719 9.69531 34.6641 9.14062ZM40.1172 8.17188C40.9531 8.17188 41.418 7.5625 41.4219 6.66406C41.418 5.76953 40.9648 5.14844 40.1172 5.14844C39.293 5.14844 38.8125 5.76953 38.8125 6.66406C38.8125 7.55469 39.2695 8.17188 40.1172 8.17188ZM39.6094 6.66406C39.6133 6.18359 39.7852 5.84766 40.1172 5.84375C40.4688 5.84375 40.6211 6.17578 40.625 6.66406C40.6211 7.15234 40.4531 7.47266 40.1172 7.47656C39.7891 7.47266 39.6133 7.15234 39.6094 6.66406ZM39.625 11H40.5L44.3906 5.34375H43.5156L39.625 11ZM42.6328 9.67969C42.6328 10.5703 43.0898 11.1875 43.9297 11.1875C44.7734 11.1875 45.2383 10.5781 45.2422 9.67969C45.2383 8.78516 44.7852 8.16797 43.9297 8.16406C43.1133 8.16797 42.6328 8.78516 42.6328 9.67969ZM43.4297 9.67969C43.4336 9.19922 43.6016 8.86328 43.9297 8.86719C44.2852 8.85938 44.4414 9.19141 44.4453 9.67969C44.4414 10.168 44.2734 10.4922 43.9297 10.4922C43.6094 10.4922 43.4336 10.168 43.4297 9.67969Z" fill="#F6F7FC"/>
<path d="M28 26L28 31" stroke="#1F53FF" stroke-linecap="round"/>
</svg>
