<svg width="17" height="18" viewBox="0 0 17 18" fill="none" xmlns="http://www.w3.org/2000/svg">
<path d="M2.74369 7.10092C3.37193 4.99 5.11189 3.35788 7.28462 2.88352M6.84884 14.6923C4.88105 14.1067 3.32933 12.5549 2.74369 10.5872M14.4402 10.5872C13.8546 12.5549 12.3029 14.1067 10.3351 14.6923M9.89929 2.88352C12.2193 3.39004 14.046 5.21665 14.5525 7.5367M7.58278 4.66972H9.78462C10.19 4.66972 10.5186 4.34113 10.5186 3.93578V1.73394C10.5186 1.3286 10.19 1 9.78462 1H7.58278C7.17744 1 6.84884 1.3286 6.84884 1.73394V3.93578C6.84884 4.34113 7.17744 4.66972 7.58278 4.66972ZM7.58278 16.8716H9.78462C10.19 16.8716 10.5186 16.543 10.5186 16.1376V13.9358C10.5186 13.5304 10.19 13.2018 9.78462 13.2018H7.58278C7.17744 13.2018 6.84884 13.5304 6.84884 13.9358V16.1376C6.84884 16.543 7.17744 16.8716 7.58278 16.8716ZM12.3303 7.83465V10.0365C12.3303 10.4418 12.6589 10.7704 13.0642 10.7704H15.2661C15.6714 10.7704 16 10.4418 16 10.0365V7.83465C16 7.4293 15.6714 7.1007 15.2661 7.1007H13.0642C12.6589 7.1007 12.3303 7.4293 12.3303 7.83465ZM1 7.83465L1 10.0365C1 10.4418 1.3286 10.7704 1.73395 10.7704H3.93578C4.34113 10.7704 4.66972 10.4418 4.66972 10.0365L4.66972 7.83465C4.66972 7.4293 4.34113 7.1007 3.93578 7.1007H1.73395C1.3286 7.1007 1 7.4293 1 7.83465Z" stroke="#F6F7FC"/>
</svg>
